<svg width="73" height="62" viewBox="0 0 73 62" fill="none" xmlns="http://www.w3.org/2000/svg">
<path fill-rule="evenodd" clip-rule="evenodd" d="M38.0223 45.6737L56.7026 26.9467C55.2935 21.6674 51.1282 17.5133 45.8424 16.1201L27.1588 34.8037C28.5553 40.1018 32.7254 44.2741 38.0223 45.6737ZM15.5805 46.382L0.5 61.4625L22.0707 61.6651L26.4639 57.2609C21.9762 54.6213 18.2219 50.8685 15.5805 46.382Z" fill="#471F99"/>
<g style="mix-blend-mode:multiply">
<path fill-rule="evenodd" clip-rule="evenodd" d="M38.0223 45.6737L56.7026 26.9467C55.2935 21.6674 51.1282 17.5133 45.8424 16.1201L27.1588 34.8037C28.5553 40.1018 32.7254 44.2741 38.0223 45.6737ZM15.5805 46.382L0.5 61.4625L22.0707 61.6651L26.4639 57.2609C21.9762 54.6213 18.2219 50.8685 15.5805 46.382Z" fill="#471F99"/>
</g>
<path fill-rule="evenodd" clip-rule="evenodd" d="M72.5 30.8981C72.5 47.7777 58.8164 61.4613 41.9368 61.4613C25.0572 61.4613 11.3736 47.7777 11.3736 30.8981C11.3736 14.0185 25.0572 0.3349 41.9368 0.3349C53.163 0.3349 62.9756 6.38755 68.2892 15.4076L56.7126 26.9842C54.9839 20.4406 49.0237 15.6165 41.9368 15.6165C33.497 15.6165 26.6552 22.4583 26.6552 30.8981C26.6552 39.3379 33.497 46.1797 41.9368 46.1797C46.8911 46.1797 51.2948 43.8221 54.0871 40.1676L71.424 22.8307C72.1255 25.4007 72.5 28.1057 72.5 30.8981Z" fill="#471F99"/>
</svg>
