<svg width="593" height="469" viewBox="0 0 593 469" fill="none" xmlns="http://www.w3.org/2000/svg">
<g clip-path="url(#clip0_36_371)">
<path d="M372.879 427.452L363.914 427.451L359.65 392.854L372.881 392.855L372.879 427.452Z" fill="#9E616A"/>
<path d="M375.165 436.146L346.26 436.145V435.779C346.261 432.794 347.446 429.931 349.556 427.82C351.666 425.709 354.527 424.522 357.511 424.522H357.512L375.165 424.523L375.165 436.146Z" fill="#2F2E41"/>
<path d="M340.707 427.452L331.742 427.451L327.478 392.854L340.708 392.855L340.707 427.452Z" fill="#9E616A"/>
<path d="M342.992 436.146L314.088 436.145V435.779C314.088 432.794 315.273 429.931 317.383 427.82C319.493 425.709 322.355 424.522 325.338 424.522H325.339L342.993 424.523L342.992 436.146Z" fill="#2F2E41"/>
<path d="M236.303 185.026C237.019 186.012 237.943 186.828 239.009 187.418C240.075 188.008 241.257 188.357 242.473 188.441C243.688 188.524 244.907 188.34 246.043 187.901C247.18 187.462 248.206 186.779 249.05 185.9L266.788 192.83L273.626 183.072L248.44 173.637C246.87 172.316 244.871 171.617 242.821 171.672C240.77 171.727 238.812 172.533 237.316 173.937C235.82 175.341 234.89 177.245 234.703 179.289C234.517 181.333 235.086 183.374 236.303 185.026Z" fill="#9E616A"/>
<path d="M340.593 244.149L317.239 251.772L325.04 417.261L343.065 417.707L352.289 301.001L354.383 417.246L376.67 418.475L384.885 244.149H340.593Z" fill="#2F2E41"/>
<path d="M324.836 146.596L384.775 133.565L391.44 185.206L385.89 209.881L388.113 247.379C388.113 247.379 340.718 270.982 317.239 251.771C317.239 251.771 336.11 202.175 325.172 178.958L324.836 146.596Z" fill="#E0E0E0"/>
<path d="M335.216 153.9L324.836 146.596C324.836 146.596 324.222 145.746 315.572 155.865C306.921 165.984 289.373 182.079 289.373 182.079L260.125 171.105L254.797 190.804L288.788 206.654L336.912 174.495L335.216 153.9Z" fill="#E0E0E0"/>
<path d="M388.124 266.737C389.226 266.216 390.2 265.46 390.977 264.522C391.755 263.584 392.318 262.487 392.627 261.307C392.935 260.128 392.981 258.896 392.762 257.697C392.542 256.498 392.063 255.361 391.357 254.368L401.467 238.222L393.159 229.681L379.202 252.683C377.613 253.98 376.554 255.815 376.226 257.841C375.898 259.867 376.325 261.943 377.425 263.675C378.524 265.407 380.221 266.676 382.193 267.24C384.165 267.804 386.275 267.625 388.124 266.737Z" fill="#9E616A"/>
<path d="M375.426 143.738L384.775 133.565C384.775 133.565 395.192 129.935 403.702 148.691C412.213 167.447 421.719 205.491 421.719 205.491L399.494 248.325L382.234 240.609L399.494 205.189L381.229 178.958L375.426 143.738Z" fill="#E0E0E0"/>
<path d="M359.573 129.329C369.002 124.172 372.467 112.343 367.313 102.909C362.159 93.4751 350.337 90.0079 340.908 95.1651C331.48 100.322 328.015 112.151 333.169 121.585C338.323 131.019 350.145 134.486 359.573 129.329Z" fill="#9E616A"/>
<path d="M366.648 94.8386C365.727 90.9729 362.506 87.9217 358.801 86.4909C355.096 85.0601 350.97 85.0739 347.054 85.7395C340.555 86.8445 334.486 89.6489 328.506 92.4251L333.115 94.6316L326.754 94.9967L331.669 97.54C330.357 98.5395 329.358 99.8946 328.792 101.445C328.226 102.995 328.117 104.675 328.476 106.286C328.729 107.339 329.405 108.501 330.488 108.537C331.797 108.581 332.48 107.055 333.396 106.119C334.615 104.873 336.54 104.597 338.267 104.832C339.993 105.066 341.631 105.731 343.334 106.098C345.487 106.547 347.712 106.523 349.855 106.026C351.998 105.529 354.007 104.572 355.744 103.221L361.873 117.988C361.815 117.431 361.887 116.869 362.083 116.344C362.278 115.819 362.592 115.347 363 114.964C363.408 114.581 363.899 114.297 364.435 114.135C364.97 113.974 365.536 113.938 366.088 114.031C366.64 114.124 367.163 114.343 367.616 114.672C368.069 115.001 368.44 115.43 368.7 115.926C368.96 116.421 369.101 116.971 369.114 117.53C369.127 118.09 369.01 118.645 368.773 119.152C371.426 115.148 373.561 110.599 373.634 105.795C373.707 100.991 371.326 95.9309 366.967 93.9152" fill="#2F2E41"/>
<path d="M141.164 393.14L132.877 406.177L137.704 389.205C127.511 378.564 113.401 370.779 113.401 370.779C113.401 370.779 96.0267 399.351 100.703 416.926C105.379 434.502 117.454 437.857 130.336 434.426C143.217 430.994 152.026 422.076 147.35 404.5C146.309 400.589 144.048 396.748 141.164 393.14Z" fill="#BFBFBF"/>
<path d="M130.199 407.477L130.429 408.343C133.057 418.427 133.45 426.736 131.592 433.156C131.567 433.25 131.536 433.341 131.51 433.435L131.077 433.307L130.662 433.178C132.767 426.22 131.827 417.427 129.538 408.631C129.467 408.347 129.394 408.059 129.314 407.772C128.311 404.058 127.083 400.357 125.747 396.8C125.646 396.524 125.539 396.244 125.433 395.965C123.645 391.279 121.69 386.867 119.88 383.064C119.753 382.795 119.622 382.527 119.492 382.263C116.401 375.839 113.781 371.287 113.192 370.282C113.123 370.159 113.082 370.091 113.073 370.075L113.45 369.851L113.453 369.846L113.833 369.62C113.842 369.636 113.98 369.861 114.221 370.284C115.132 371.86 117.55 376.153 120.338 381.923C120.463 382.184 120.594 382.452 120.72 382.721C122.193 385.806 123.754 389.275 125.239 392.958C125.613 393.882 125.971 394.797 126.313 395.703C126.424 395.981 126.531 396.26 126.632 396.537C128.077 400.382 129.266 404.028 130.199 407.477Z" fill="white"/>
<path d="M120.338 381.923C120.061 382.038 119.78 382.154 119.492 382.263C118.711 382.56 117.915 382.816 117.108 383.031C113.668 383.952 110.066 384.09 106.566 383.433C106.446 383.708 106.327 383.983 106.204 384.264C109.895 384.989 113.702 384.861 117.336 383.889C118.198 383.659 119.047 383.384 119.88 383.064C120.163 382.957 120.445 382.84 120.72 382.721C123 381.749 125.12 380.437 127.006 378.829C126.759 378.642 126.517 378.458 126.281 378.278C124.49 379.779 122.488 381.007 120.338 381.923Z" fill="white"/>
<path d="M126.313 395.703C126.022 395.799 125.729 395.886 125.433 395.965C125.344 395.993 125.25 396.018 125.16 396.042C121.431 397.036 117.518 397.112 113.754 396.265C109.989 395.418 106.486 393.673 103.541 391.178C103.437 391.477 103.333 391.776 103.234 392.078C106.278 394.584 109.876 396.329 113.728 397.168C117.581 398.007 121.578 397.915 125.388 396.9C125.508 396.868 125.628 396.836 125.747 396.8C126.046 396.716 126.339 396.628 126.632 396.537C131.146 395.083 135.146 392.359 138.154 388.691C137.949 388.475 137.745 388.258 137.536 388.043C134.62 391.634 130.719 394.297 126.313 395.703Z" fill="white"/>
<path d="M130.199 407.477C129.906 407.583 129.61 407.68 129.314 407.772C128.996 407.871 128.676 407.965 128.355 408.051C123.343 409.38 118.036 409.048 113.229 407.107C108.421 405.165 104.371 401.718 101.685 397.28C101.585 397.679 101.483 398.073 101.391 398.47C104.252 402.849 108.419 406.214 113.301 408.088C118.182 409.962 123.529 410.249 128.583 408.909C128.905 408.823 129.225 408.733 129.538 408.631C129.84 408.542 130.135 408.445 130.429 408.343C136.363 406.254 141.283 401.987 144.191 396.406C144.016 396.113 143.83 395.827 143.643 395.537C140.884 401.115 136.061 405.398 130.199 407.477Z" fill="white"/>
<path d="M464.441 394.5L456.274 407.347L461.031 390.622C450.987 380.135 437.081 372.463 437.081 372.463C437.081 372.463 419.959 400.62 424.568 417.94C429.176 435.26 441.076 438.567 453.77 435.185C466.464 431.804 475.145 423.015 470.537 405.695C469.511 401.84 467.283 398.055 464.441 394.5Z" fill="#BFBFBF"/>
<path d="M453.635 408.628L453.862 409.482C456.452 419.419 456.839 427.607 455.008 433.934C454.983 434.026 454.952 434.116 454.927 434.209L454.5 434.083L454.091 433.956C456.166 427.099 455.24 418.434 452.983 409.766C452.913 409.486 452.842 409.201 452.763 408.919C451.775 405.258 450.565 401.611 449.248 398.106C449.148 397.834 449.043 397.559 448.938 397.283C447.176 392.666 445.25 388.318 443.466 384.57C443.341 384.305 443.212 384.041 443.084 383.78C440.038 377.45 437.456 372.964 436.876 371.974C436.807 371.852 436.767 371.786 436.758 371.77L437.129 371.549L437.132 371.544L437.507 371.321C437.516 371.337 437.652 371.559 437.889 371.975C438.787 373.529 441.17 377.759 443.918 383.445C444.04 383.702 444.169 383.967 444.294 384.232C445.745 387.272 447.284 390.691 448.747 394.32C449.116 395.231 449.469 396.133 449.806 397.025C449.915 397.299 450.02 397.575 450.12 397.847C451.544 401.636 452.716 405.23 453.635 408.628Z" fill="white"/>
<path d="M443.918 383.445C443.645 383.559 443.368 383.673 443.084 383.78C442.314 384.073 441.53 384.326 440.734 384.538C437.344 385.445 433.794 385.581 430.345 384.933C430.228 385.205 430.11 385.476 429.989 385.753C433.626 386.467 437.378 386.341 440.959 385.383C441.809 385.156 442.645 384.885 443.466 384.57C443.745 384.464 444.022 384.35 444.294 384.232C446.541 383.274 448.63 381.981 450.488 380.396C450.245 380.212 450.007 380.031 449.774 379.853C448.009 381.332 446.036 382.543 443.918 383.445Z" fill="white"/>
<path d="M449.806 397.025C449.519 397.12 449.23 397.206 448.938 397.283C448.851 397.311 448.758 397.336 448.669 397.36C444.995 398.338 441.139 398.414 437.429 397.579C433.719 396.744 430.266 395.025 427.364 392.566C427.262 392.861 427.159 393.155 427.062 393.452C430.062 395.923 433.607 397.643 437.404 398.469C441.201 399.296 445.139 399.205 448.894 398.205C449.012 398.173 449.131 398.142 449.248 398.106C449.542 398.023 449.832 397.937 450.12 397.847C454.568 396.414 458.51 393.73 461.474 390.115C461.273 389.902 461.071 389.688 460.865 389.476C457.992 393.016 454.148 395.639 449.806 397.025Z" fill="white"/>
<path d="M453.635 408.628C453.346 408.732 453.055 408.828 452.763 408.919C452.449 409.016 452.135 409.109 451.818 409.194C446.879 410.503 441.649 410.177 436.911 408.263C432.173 406.35 428.182 402.952 425.536 398.58C425.437 398.973 425.337 399.361 425.246 399.752C428.065 404.067 432.172 407.384 436.982 409.23C441.793 411.077 447.062 411.36 452.043 410.039C452.36 409.955 452.675 409.866 452.983 409.766C453.281 409.677 453.572 409.582 453.862 409.482C459.71 407.423 464.558 403.218 467.423 397.718C467.251 397.429 467.068 397.147 466.883 396.862C464.164 402.358 459.412 406.579 453.635 408.628Z" fill="white"/>
<path d="M295.407 75.3046C295.407 44.5723 273.994 19.6589 247.579 19.6589C221.165 19.6589 199.752 44.5723 199.752 75.3046C199.752 103.177 217.366 126.263 240.349 130.318V135.562C240.349 136.553 240.743 137.503 241.443 138.203C242.143 138.904 243.092 139.297 244.082 139.297H251.076C252.066 139.297 253.015 138.904 253.715 138.203C254.416 137.503 254.809 136.553 254.809 135.562V130.318C277.792 126.263 295.407 103.177 295.407 75.3046Z" fill="#471699"/>
<path d="M239.199 134.804C240.696 133.398 242.479 132.332 244.426 131.681C246.373 131.029 248.437 130.807 250.478 131.029C252.535 131.267 254.508 131.981 256.243 133.112C257.977 134.244 259.425 135.763 260.473 137.55C261.521 139.284 262.179 141.226 262.402 143.24C262.625 145.254 262.407 147.292 261.764 149.214C260.507 153.046 257.835 156.235 255.095 159.109C252.221 162.124 249.095 164.905 246.393 168.083C241.938 173.354 238.826 179.628 237.326 186.367C235.826 193.105 235.982 200.107 237.781 206.773C240.151 215.221 245.046 222.742 251.81 228.327C252.668 229.029 253.553 229.698 254.463 230.334C255.516 231.071 256.513 229.343 255.469 228.612C248.126 223.414 242.699 215.941 240.028 207.347C238.003 200.651 237.744 193.543 239.276 186.717C240.808 179.89 244.08 173.577 248.772 168.389C251.623 165.241 254.814 162.422 257.663 159.272C260.393 156.255 262.881 152.851 263.947 148.865C264.487 146.838 264.621 144.724 264.341 142.646C264.061 140.567 263.373 138.564 262.317 136.753C261.265 134.901 259.842 133.286 258.138 132.01C256.433 130.734 254.484 129.824 252.411 129.337C248.242 128.43 243.884 129.185 240.262 131.441C239.375 132.008 238.547 132.662 237.79 133.394C236.865 134.286 238.275 135.695 239.199 134.804Z" fill="#3F3D56"/>
<path d="M111.104 52.0027C96.4699 18.3416 61.1528 1.26212 32.221 13.8548C3.28917 26.4474 -8.3013 63.9435 6.33278 97.6047C19.6053 128.134 49.8909 145.022 76.9958 138.507L79.4929 144.25C79.9647 145.335 80.8478 146.188 81.9482 146.622C83.0485 147.056 84.2759 147.034 85.3603 146.562L93.0203 143.228C94.1047 142.756 94.9573 141.872 95.3905 140.771C95.8238 139.67 95.8022 138.442 95.3304 137.357L92.8333 131.613C116.077 116.215 124.376 82.5319 111.104 52.0027Z" fill="#471699"/>
<path d="M77.726 143.797C78.6769 141.605 80.0773 139.638 81.8366 138.022C83.5958 136.406 85.6747 135.179 87.9385 134.418C90.1614 133.669 92.5211 133.415 94.8523 133.675C97.1835 133.934 99.43 134.7 101.434 135.918C103.499 137.142 105.28 138.793 106.657 140.76C108.034 142.726 108.977 144.964 109.421 147.324C110.443 152.794 108.785 158.364 106.902 163.456C104.928 168.794 102.468 173.978 101.095 179.521C99.1851 187.312 99.1465 195.444 100.983 203.253C102.819 211.061 106.478 218.323 111.659 224.444C118.186 232.011 126.781 237.504 136.387 240.245C137.565 240.578 138.756 240.861 139.956 241.104C141.208 241.358 141.743 239.437 140.485 239.182C130.491 237.123 121.382 232.008 114.42 224.543C107.039 216.559 102.581 206.308 101.771 195.462C101.338 189.967 101.841 184.439 103.26 179.112C104.774 173.492 107.337 168.23 109.27 162.754C111.114 157.528 112.42 151.917 111.262 146.387C110.197 141.518 107.244 137.271 103.052 134.579C101.043 133.254 98.7905 132.341 96.4258 131.894C94.0611 131.447 91.6312 131.475 89.2773 131.975C84.4702 133.065 80.2585 135.946 77.4992 140.033C76.828 141.052 76.2603 142.135 75.8044 143.267C75.3144 144.451 77.2417 144.968 77.726 143.797Z" fill="#3F3D56"/>
<path d="M519.893 458.582L530.635 458.581L535.745 417.124L519.891 417.125L519.893 458.582Z" fill="#FFB6B6"/>
<path d="M517.153 455.072L538.307 455.072H538.308C541.884 455.072 545.312 456.493 547.841 459.023C550.369 461.552 551.789 464.983 551.789 468.56V468.999L517.154 469L517.153 455.072Z" fill="#2F2E41"/>
<path d="M456.314 449.442L466.556 452.683L483.925 414.7L468.809 409.915L456.314 449.442Z" fill="#FFB6B6"/>
<path d="M454.76 445.269L474.929 451.653L474.93 451.653C478.339 452.732 481.179 455.122 482.827 458.297C484.475 461.471 484.795 465.171 483.717 468.582L483.585 469L450.562 458.548L454.76 445.269Z" fill="#2F2E41"/>
<path d="M480.501 269.245L474.54 286.067L474.371 376.88L457.467 439.056L478.217 444.851L501.139 386.224L508.491 334.729L518.179 386.523L516.846 448.084H538.618L540.261 353.218C540.723 326.576 536.063 300.093 526.537 275.21L480.501 269.245Z" fill="#2F2E41"/>
<path d="M473.401 201.105H508.593L523.297 215.818L527.69 276.634L474.54 285.193L457.466 227.165L466.764 202.504L473.401 201.105Z" fill="#E0E0E0"/>
<path d="M460.746 227.746L406.564 207.348L405.154 198.916L439.324 169.985L450.697 178.521L430.083 201.105L466.764 202.504L460.746 227.746Z" fill="#E0E0E0"/>
<path d="M445.895 181.819C450.734 181.819 454.657 177.894 454.657 173.052C454.657 168.21 450.734 164.285 445.895 164.285C441.056 164.285 437.134 168.21 437.134 173.052C437.134 177.894 441.056 181.819 445.895 181.819Z" fill="#FFB6B6"/>
<path d="M466.215 184.096L470.174 166.233C470.869 163.087 472.176 160.108 474.021 157.468C475.866 154.828 478.213 152.577 480.928 150.845C483.643 149.113 486.672 147.933 489.843 147.373C493.014 146.813 496.264 146.884 499.408 147.581C502.551 148.279 505.527 149.589 508.164 151.438C510.801 153.287 513.048 155.638 514.776 158.356C516.505 161.074 517.681 164.106 518.238 167.28C518.794 170.453 518.72 173.705 518.02 176.85L514.061 194.713C513.871 195.565 513.351 196.307 512.615 196.776C511.879 197.246 510.987 197.403 510.135 197.215L468.716 188.025C467.864 187.835 467.123 187.314 466.654 186.578C466.185 185.841 466.027 184.949 466.215 184.096Z" fill="#2F2E41"/>
<path d="M493.491 190.829C503.021 188.066 508.509 178.096 505.747 168.561C502.986 159.025 493.021 153.535 483.491 156.298C473.961 159.061 468.474 169.031 471.236 178.567C473.997 188.102 483.961 193.592 493.491 190.829Z" fill="#FFB6B6"/>
<path d="M464.198 166.406C465.316 161.387 468.379 157.017 472.713 154.255C477.048 151.492 482.3 150.563 487.319 151.67L490.89 152.462C495.906 153.581 500.273 156.646 503.034 160.983C505.795 165.32 506.724 170.575 505.617 175.597L505.538 175.954L497.992 174.28L497.016 166.498L494.904 173.594L491.004 172.729L490.512 168.803L489.445 172.383L464.119 166.763L464.198 166.406Z" fill="#2F2E41"/>
<path d="M482.338 193.155C482.09 192.596 482.005 191.979 482.093 191.374C482.18 190.769 482.436 190.201 482.832 189.736C488.212 183.374 496.459 171.244 491.246 161.477L490.871 160.776L511.286 165.305L504.489 195.973L485.218 195.132C485.023 195.124 484.829 195.098 484.638 195.056C484.132 194.944 483.659 194.713 483.259 194.382C482.86 194.052 482.544 193.631 482.338 193.155Z" fill="#2F2E41"/>
<path d="M507.193 201.474L564.506 209.628L567.711 217.553L540.625 253.21L527.672 247.346L542.9 220.826L506.789 227.421L507.193 201.474Z" fill="#E0E0E0"/>
<path d="M593 85.8716C593 49.1636 567.423 19.4058 535.873 19.4058C504.322 19.4058 478.745 49.1636 478.745 85.8716C478.745 119.164 499.784 146.739 527.237 151.582V157.846C527.237 159.029 527.707 160.164 528.543 161C529.379 161.837 530.513 162.307 531.696 162.307H540.049C541.232 162.307 542.366 161.837 543.202 161C544.038 160.164 544.508 159.029 544.508 157.846V151.582C571.961 146.739 593 119.164 593 85.8716Z" fill="#471699"/>
<path d="M525.727 156.803C527.54 155.097 529.703 153.806 532.065 153.019C534.426 152.232 536.93 151.968 539.404 152.245C541.834 152.531 544.167 153.367 546.227 154.69C548.286 156.012 550.018 157.786 551.291 159.877C552.586 161.941 553.419 164.261 553.733 166.678C554.046 169.095 553.833 171.551 553.107 173.877C551.698 178.443 548.604 182.267 545.379 185.694C541.939 189.35 538.171 192.693 534.882 196.492C529.52 202.726 525.752 210.17 523.902 218.184C522.051 226.198 522.174 234.542 524.259 242.498C527.048 252.724 532.941 261.831 541.125 268.562C542.118 269.371 543.141 270.143 544.193 270.878C545.246 271.615 546.243 269.887 545.198 269.156C536.435 262.958 529.944 254.055 526.721 243.813C524.273 235.818 523.926 227.327 525.713 219.159C527.501 210.991 531.362 203.422 536.925 197.182C540.306 193.405 544.114 190.041 547.533 186.301C550.808 182.72 553.814 178.699 555.159 173.967C555.836 171.577 556.033 169.076 555.738 166.609C555.443 164.142 554.662 161.758 553.44 159.596C552.224 157.384 550.564 155.447 548.564 153.908C546.564 152.368 544.268 151.259 541.82 150.649C536.844 149.504 531.618 150.371 527.278 153.062C526.214 153.735 525.222 154.516 524.318 155.393C523.393 156.286 524.804 157.695 525.727 156.803Z" fill="#3F3D56"/>
<path d="M532.636 263.35C537.475 263.35 541.398 259.425 541.398 254.583C541.398 249.741 537.475 245.816 532.636 245.816C527.797 245.816 523.874 249.741 523.874 254.583C523.874 259.425 527.797 263.35 532.636 263.35Z" fill="#FFB6B6"/>
<path d="M441.334 175.513C440.874 176.24 439.76 176.134 439.135 175.68C438.267 175.049 438.548 173.833 439.146 173.115C441.046 170.833 444.189 173.243 444.613 175.509C444.77 176.615 444.6 177.742 444.123 178.751C443.647 179.761 442.884 180.608 441.931 181.188C439.763 182.473 436.947 181.828 435.083 180.29C431.194 177.08 432.253 170.654 436.572 168.333C439.328 166.851 442.813 167.501 445.528 168.742C448.585 170.14 451.213 172.281 454.04 174.067C460.242 177.951 467.258 180.348 474.539 181.07C475.814 181.2 475.805 179.206 474.539 179.076C470.504 178.659 466.543 177.705 462.76 176.239C459.018 174.721 455.466 172.77 452.176 170.426C448.848 168.143 445.371 165.926 441.252 165.549C439.59 165.355 437.906 165.604 436.372 166.272C434.838 166.94 433.507 168.003 432.516 169.352C431.635 170.56 431.045 171.955 430.793 173.429C430.54 174.902 430.632 176.414 431.062 177.846C431.58 179.344 432.484 180.678 433.685 181.711C434.885 182.745 436.337 183.442 437.894 183.732C439.393 184.015 440.943 183.824 442.327 183.184C443.712 182.543 444.862 181.487 445.618 180.161C447.134 177.538 447.085 174.014 444.795 171.839C444.139 171.171 443.317 170.69 442.414 170.444C441.511 170.198 440.559 170.197 439.655 170.44C438.822 170.721 438.09 171.24 437.547 171.931C437.004 172.623 436.674 173.458 436.597 174.334C436.376 177.739 441.208 179.442 443.054 176.519C443.742 175.432 442.018 174.43 441.334 175.513Z" fill="#3F3D56"/>
<path d="M42.6435 282.673L40.0117 285.977L30.7026 280.467L33.3345 277.162L42.6435 282.673Z" fill="#180A33"/>
<path d="M52.3572 296.87L54.6821 300.341L44.9027 305.209L42.5778 301.737L52.3572 296.87Z" fill="#180A33"/>
<path d="M62.4807 281.778L67.1266 281.942L66.6643 291.669L62.0183 291.505L62.4807 281.778Z" fill="#180A33"/>
<path d="M152.248 19.4685L149.616 22.7725L140.307 17.2625L142.939 13.9578L152.248 19.4685Z" fill="#180A33"/>
<path d="M161.962 33.6656L164.287 37.1371L154.507 42.0043L152.183 38.5328L161.962 33.6656Z" fill="#180A33"/>
<path d="M172.085 18.5739L176.731 18.738L176.269 28.4646L171.623 28.3004L172.085 18.5739Z" fill="#180A33"/>
<path d="M410.65 54.0307L408.018 57.3347L398.709 51.8247L401.341 48.52L410.65 54.0307Z" fill="#180A33"/>
<path d="M420.363 68.2278L422.688 71.6993L412.909 76.5665L410.584 73.095L420.363 68.2278Z" fill="#180A33"/>
<path d="M430.487 53.136L435.133 53.3002L434.67 63.0268L430.025 62.8626L430.487 53.136Z" fill="#180A33"/>
<path d="M331.601 5.51067L328.97 8.81469L319.661 3.30468L322.292 0L331.601 5.51067Z" fill="#180A33"/>
<path d="M341.315 19.7078L343.64 23.1793L333.861 28.0466L331.536 24.575L341.315 19.7078Z" fill="#180A33"/>
<path d="M351.439 4.61604L356.085 4.78021L355.622 14.5068L350.976 14.3426L351.439 4.61604Z" fill="#180A33"/>
<path d="M411.969 253.899L409.337 257.735L418.646 264.131L421.278 260.295L411.969 253.899Z" fill="#E4E4E4"/>
<path d="M421.212 282.423L423.537 286.453L433.317 280.803L430.992 276.774L421.212 282.423Z" fill="#E4E4E4"/>
<path d="M440.653 270.546L445.299 270.737L445.761 259.447L441.115 259.257L440.653 270.546Z" fill="#E4E4E4"/>
<path d="M214.492 427.954L222.54 426.708L217.023 362.369L199.087 365.693L214.492 427.954Z" fill="#FFB6B6"/>
<path d="M212.033 425.642L227.883 423.19C230.562 422.775 233.296 423.443 235.483 425.045C237.67 426.647 239.131 429.053 239.546 431.733L239.596 432.062L213.646 436.077L212.033 425.642Z" fill="#2F2E41"/>
<path d="M129.906 427.156L138.042 427.502L147.938 370.344L130.003 370.345L129.906 427.156Z" fill="#FFB6B6"/>
<path d="M127.944 424.409L143.967 425.092H143.968C146.676 425.208 149.228 426.395 151.061 428.393C152.894 430.391 153.859 433.035 153.744 435.745L153.73 436.077L127.495 434.959L127.944 424.409Z" fill="#2F2E41"/>
<path d="M145.925 240.932C145.541 240.824 145.148 240.751 144.751 240.713L149.824 199.172L167.034 162.703C168.117 160.409 168.29 157.79 167.518 155.373C166.747 152.956 165.088 150.922 162.876 149.681C160.665 148.44 158.065 148.084 155.602 148.686C153.139 149.287 150.995 150.801 149.603 152.921C145.092 159.793 141.68 167.327 139.49 175.251L132.259 201.41L137.546 246.269C137.344 247.534 137.51 248.83 138.026 250.001C138.543 251.173 139.386 252.171 140.456 252.874C141.525 253.578 142.775 253.957 144.055 253.966C145.334 253.976 146.59 253.615 147.669 252.927C148.749 252.24 149.607 251.254 150.14 250.09C150.673 248.926 150.859 247.633 150.675 246.365C150.491 245.098 149.944 243.911 149.102 242.947C148.259 241.983 147.156 241.284 145.925 240.932Z" fill="#FFB6B6"/>
<path d="M156.375 202.688L134.631 177.799L145.403 152.448C146.813 149.128 149.465 146.491 152.791 145.1C156.117 143.709 159.855 143.674 163.207 145.002C166.559 146.331 169.259 148.917 170.732 152.21C172.205 155.502 172.333 159.24 171.089 162.626L156.375 202.688Z" fill="#2F2E41"/>
<path d="M192.521 123.343C197.752 113.768 194.235 101.762 184.665 96.5274C175.095 91.2929 163.096 94.8121 157.865 104.388C152.633 113.963 156.15 125.969 165.72 131.203C175.29 136.438 187.289 132.919 192.521 123.343Z" fill="#FFB6B6"/>
<path d="M178.495 89.8595H165.738C157.375 89.8595 150.595 97.4911 150.595 106.905L151.186 129.739C160.222 130.864 169.061 133.229 177.452 136.768L178.642 131.681L180.991 138.381C183.08 139.394 185.151 140.501 187.204 141.703C184.808 130.436 183.821 119.196 185.467 110.464H189.787V105.733L191.254 110.464H199.087C199.087 107.758 198.555 105.079 197.52 102.579C196.485 100.079 194.968 97.8076 193.056 95.8944C191.144 93.9811 188.874 92.4634 186.375 91.4279C183.877 90.3924 181.199 89.8595 178.495 89.8595Z" fill="#2F2E41"/>
<path d="M220.09 365.865L218.241 366.31L216.69 337.444L205.398 251.039L192.445 218.138L198.755 195.208C198.755 195.208 206.062 179.256 187.795 166.96L173.181 142.367C163.086 135.763 154.78 140.081 150.353 151.307C146.495 161.088 143.5 173.462 145.281 186.235C149.271 214.845 152.588 218.138 152.588 218.138C152.588 218.138 127.678 245.722 132.992 280.949L130.031 372.156L127.321 372.045L127.024 379.289L150.696 380.26L150.993 373.016L149.03 372.935L157.57 336.78L170.191 288.924L192.112 347.414L199.486 370.83L197.057 371.415L198.753 378.464L221.786 372.914L220.09 365.865Z" fill="#2F2E41"/>
<path d="M236.357 202.083C236.089 202.378 235.848 202.697 235.637 203.036L200.76 179.935L175.843 148.234C174.276 146.24 172.011 144.915 169.506 144.525C167 144.136 164.44 144.712 162.343 146.138C160.245 147.563 158.765 149.731 158.202 152.204C157.639 154.678 158.035 157.273 159.309 159.467C163.438 166.575 168.649 172.995 174.755 178.497L194.913 196.657L237.385 211.968C238.425 212.714 239.658 213.144 240.937 213.206C242.215 213.267 243.484 212.958 244.591 212.315C245.698 211.672 246.595 210.723 247.175 209.581C247.755 208.44 247.994 207.155 247.861 205.881C247.729 204.607 247.231 203.399 246.429 202.402C245.626 201.404 244.552 200.66 243.337 200.259C242.122 199.858 240.816 199.816 239.578 200.14C238.34 200.463 237.221 201.138 236.357 202.083Z" fill="#FFB6B6"/>
<path d="M206.832 175.641L174.863 183.985L157.009 163.015C154.671 160.269 153.498 156.718 153.74 153.119C153.983 149.52 155.622 146.158 158.307 143.751C160.992 141.344 164.511 140.082 168.113 140.235C171.715 140.388 175.115 141.944 177.586 144.57L206.832 175.641Z" fill="#2F2E41"/>
<path d="M454.623 436.754H24.6446C24.4348 436.754 24.2337 436.671 24.0853 436.522C23.937 436.374 23.8537 436.173 23.8537 435.963C23.8537 435.753 23.937 435.552 24.0853 435.403C24.2337 435.255 24.4348 435.171 24.6446 435.171H454.623C454.833 435.171 455.034 435.255 455.183 435.403C455.331 435.552 455.414 435.753 455.414 435.963C455.414 436.173 455.331 436.374 455.183 436.522C455.034 436.671 454.833 436.754 454.623 436.754Z" fill="#E0E0E0"/>
</g>
<defs>
<clipPath id="clip0_36_371">
<rect width="593" height="469" fill="white"/>
</clipPath>
</defs>
</svg>
